<?xml version="1.0" encoding="utf-8"?>
<!-- Generator: Adobe Illustrator 25.0.1, SVG Export Plug-In . SVG Version: 6.00 Build 0)  -->
<svg version="1.1" id="Capa_1" xmlns="http://www.w3.org/2000/svg" xmlns:xlink="http://www.w3.org/1999/xlink" x="0px" y="0px"
	 viewBox="0 0 699.1 204" style="enable-background:new 0 0 699.1 204;" xml:space="preserve">
<style type="text/css">
	.st0{fill:#D2010D;}
	.st1{enable-background:new    ;}
	.st2{fill:none;stroke:#D6D6D6;stroke-width:5;stroke-miterlimit:10;}
	.st3{fill:#FFFFFF;}
	.st4{fill:none;}
</style>
<g id="Estructura">
	<g id="LG_Colgate">
		<path class="st0" d="M254.6,78.3c0,130.1-224.7,130.1-224.7,0V12.9h224.7V78.3z"/>
		<path class="st0" d="M254.6,78.3c0,130.1-224.7,130.1-224.7,0V0h224.7V78.3z"/>
		<g class="st1">
			<path class="st0" d="M315.6,48.9h9.5L336,76h0.5l10.1-27.1h9.5l-16.6,39.5h-6.9L315.6,48.9z"/>
		</g>
		<g class="st1">
			<path class="st0" d="M362.6,87.6c-1.7-0.9-3-2.1-4-3.7c-1-1.6-1.4-3.4-1.4-5.3c0-3,1-5.2,3-6.7c2-1.5,5.3-2.2,9.8-2.2h2
				c1.4,0,2.9,0.1,4.4,0.2v-1.3c0-1.6-0.5-2.7-1.6-3.4c-1.1-0.7-2.8-1.1-5.1-1.1c-2.8,0-5.9,0.4-9.1,1.2l-0.5-6.5
				c1.6-0.4,3.4-0.8,5.6-1.1c2.2-0.3,4.2-0.4,6.2-0.4c4.1,0,7.3,0.9,9.5,2.7c2.2,1.8,3.3,4.5,3.3,8.2v14.1c0,2.8,0,4.8,0.1,6.1h-7.1
				c-0.2-1.2-0.4-2.1-0.4-2.9h-0.1c-2.2,2.3-5.1,3.5-8.6,3.5C366.3,89,364.3,88.5,362.6,87.6z M374.8,81.4c1.1-0.8,1.6-1.9,1.6-3.3
				v-2.8h-7.1c-1.2,0-2.1,0.3-2.8,0.8c-0.7,0.5-1,1.3-1,2.3c0,1.3,0.5,2.3,1.4,3c0.9,0.7,2.1,1.1,3.7,1.1
				C372.3,82.7,373.7,82.3,374.8,81.4z"/>
			<path class="st0" d="M397.2,87.1c-2.3-1.2-4.1-3-5.4-5.4c-1.3-2.4-2-5.2-2-8.4c0-3.2,0.7-6,2.1-8.4c1.4-2.4,3.3-4.3,5.8-5.6
				c2.4-1.3,5-2,7.9-2c1.4,0,2.8,0.2,4.1,0.7c1.3,0.4,2.4,1,3.1,1.7h0.1v-12l8.2-2.2v34.2c0,2.6,0,5.5,0.1,8.6h-6.9
				c-0.2-1-0.4-2-0.5-3.1h-0.2c-0.9,1.1-2.1,2-3.6,2.7c-1.5,0.7-3.2,1-5.1,1C402.1,89,399.5,88.4,397.2,87.1z M410.1,81.1
				c1.1-0.5,2.1-1.3,2.8-2.2v-8.1c0-2.1-0.6-3.7-1.8-4.9c-1.2-1.2-2.8-1.8-4.9-1.8c-2.4,0-4.3,0.8-5.8,2.4c-1.5,1.6-2.2,3.7-2.2,6.2
				c0,2.8,0.7,5,2.2,6.7c1.5,1.7,3.5,2.5,6,2.5C407.7,82,408.9,81.7,410.1,81.1z"/>
			<path class="st0" d="M430.3,84.9c-2.8-2.7-4.2-6.6-4.2-11.6c0-3,0.6-5.8,1.8-8.2c1.2-2.4,3-4.3,5.3-5.7c2.3-1.4,5.1-2.1,8.4-2.1
				c4.6,0,8,1.4,10.2,4.1c2.2,2.7,3.3,6.2,3.3,10.4c0,1.5-0.1,2.9-0.4,4.1h-20.1c0.1,1.9,0.9,3.4,2.5,4.5s3.7,1.7,6.5,1.7
				c3.3,0,6.3-0.5,8.7-1.5l0.7,6.6c-2.7,1.1-6.1,1.7-10.2,1.7C437.3,89,433.1,87.6,430.3,84.9z M446.9,70.3c0-0.4,0-0.8-0.1-1.1
				c-0.2-1.8-0.8-3.2-1.7-4.2c-0.9-1-2.2-1.5-3.9-1.5c-2,0-3.6,0.6-4.7,1.8c-1.1,1.2-1.7,2.9-1.7,5.1H446.9z"/>
			<path class="st0" d="M460.8,57.9h7.2l0.4,2.7c1.4-0.9,2.9-1.7,4.7-2.3c1.8-0.6,3.5-0.9,5.3-0.9c1.6,0,3.1,0.3,4.5,0.9
				c1.4,0.6,2.5,1.5,3.4,2.7c1.8-1.1,3.6-1.9,5.6-2.6c2-0.7,3.9-1,5.6-1c1.5,0,2.9,0.3,4.3,0.8c1.3,0.5,2.3,1.2,3,2
				c0.9,1.1,1.6,2.3,1.9,3.7c0.3,1.4,0.5,3.3,0.5,5.6v19h-8.2V70.3c0-1.3-0.1-2.3-0.2-3s-0.4-1.3-0.7-1.8c-0.7-0.9-2-1.3-3.7-1.3
				c-0.9,0-2,0.2-3.2,0.6c-1.2,0.4-2.3,0.9-3.2,1.4c0,0.7,0.1,1.7,0.1,3v19.1H480V70.3c0-1.1-0.1-2-0.2-2.7
				c-0.2-0.7-0.4-1.3-0.8-1.9c-0.7-1-1.9-1.5-3.5-1.5c-1.1,0-2.1,0.2-3.3,0.6c-1.1,0.4-2.2,0.9-3.1,1.5v22h-8.2V57.9z"/>
			<path class="st0" d="M516.8,84.9c-2.8-2.7-4.2-6.6-4.2-11.6c0-3,0.6-5.8,1.8-8.2c1.2-2.4,3-4.3,5.3-5.7c2.3-1.4,5.1-2.1,8.4-2.1
				c4.6,0,8,1.4,10.2,4.1c2.2,2.7,3.3,6.2,3.3,10.4c0,1.5-0.1,2.9-0.4,4.1h-20.1c0.1,1.9,0.9,3.4,2.5,4.5s3.7,1.7,6.5,1.7
				c3.3,0,6.3-0.5,8.7-1.5l0.7,6.6c-2.7,1.1-6.1,1.7-10.2,1.7C523.8,89,519.6,87.6,516.8,84.9z M533.5,70.3c0-0.4,0-0.8-0.1-1.1
				c-0.2-1.8-0.8-3.2-1.7-4.2c-0.9-1-2.2-1.5-3.9-1.5c-2,0-3.6,0.6-4.7,1.8c-1.1,1.2-1.7,2.9-1.7,5.1H533.5z"/>
			<path class="st0" d="M554,87.1c-2.6-1.2-4.5-3.1-5.9-5.4c-1.4-2.4-2.1-5.2-2.1-8.5c0-3.2,0.7-6,2.2-8.4c1.5-2.4,3.5-4.2,6.1-5.5
				c2.6-1.3,5.5-1.9,8.8-1.9c2.9,0,5.7,0.4,8.5,1.3l-0.9,6.7c-2.1-0.8-4.4-1.2-6.9-1.2c-2.7,0-5,0.8-6.8,2.3
				c-1.8,1.5-2.7,3.7-2.7,6.6c0,2.9,0.9,5.1,2.7,6.7c1.8,1.6,4.1,2.4,6.8,2.4c2.7,0,5.1-0.4,7.2-1.3l0.7,6.6c-1,0.5-2.3,0.8-3.9,1.1
				c-1.6,0.3-3.2,0.4-4.9,0.4C559.5,89,556.5,88.4,554,87.1z"/>
			<path class="st0" d="M580.5,86c-2.3-2-3.4-5.1-3.4-9.4V57.9h8.2v18.6c0,2,0.5,3.5,1.4,4.4c0.9,1,2.4,1.4,4.3,1.4
				c1.9,0,3.3-0.5,4.2-1.4c0.9-1,1.4-2.4,1.4-4.4V57.9h8.2v18.7c0,4.1-1.2,7.2-3.6,9.3c-2.4,2.1-5.8,3.1-10.3,3.1
				C586.3,89,582.8,88,580.5,86z"/>
			<path class="st0" d="M611.6,57.9h7.2l0.4,2.7c1.4-0.9,2.9-1.7,4.7-2.3c1.8-0.6,3.5-0.9,5.3-0.9c1.6,0,3.1,0.3,4.5,0.9
				c1.4,0.6,2.5,1.5,3.4,2.7c1.8-1.1,3.6-1.9,5.6-2.6c2-0.7,3.9-1,5.6-1c1.5,0,2.9,0.3,4.3,0.8c1.3,0.5,2.3,1.2,3,2
				c0.9,1.1,1.6,2.3,1.9,3.7c0.3,1.4,0.5,3.3,0.5,5.6v19h-8.2V70.3c0-1.3-0.1-2.3-0.2-3s-0.4-1.3-0.7-1.8c-0.7-0.9-2-1.3-3.7-1.3
				c-0.9,0-2,0.2-3.2,0.6c-1.2,0.4-2.3,0.9-3.2,1.4c0,0.7,0.1,1.7,0.1,3v19.1h-8.2V70.3c0-1.1-0.1-2-0.2-2.7
				c-0.2-0.7-0.4-1.3-0.8-1.9c-0.7-1-1.9-1.5-3.5-1.5c-1.1,0-2.1,0.2-3.3,0.6c-1.1,0.4-2.2,0.9-3.1,1.5v22h-8.2V57.9z"/>
		</g>
		<line class="st2" x1="311.1" y1="117" x2="669.9" y2="117"/>
		<line class="st2" x1="311.1" y1="25.3" x2="669.9" y2="25.3"/>
		<path class="st3" d="M94.6,76.2c-1.4,0.2-2.8-0.3-3.9-1.3c-0.8-1-1-2.5-0.6-4.5c0.8-3.6,3.9-9.1,9.6-9.1c1.1-0.1,2.2,0.3,3,1.2
			c0.8,1.1,1,2.5,0.7,3.9C101.3,75.8,95.6,76.3,94.6,76.2 M99.7,57.7c-7.6,0-16,4.6-17.5,12.2c-1.6,8.2,5.7,10,10.3,10
			c10.5,0.1,16.9-6.2,18.4-12.6C112.4,61.2,107,57.7,99.7,57.7"/>
		<path class="st4" d="M12.6,76.2c-1.4,0.2-2.8-0.3-3.9-1.3c-0.8-1-1-2.5-0.6-4.5c0.8-3.6,3.9-9.1,9.6-9.1c1.1-0.1,2.2,0.3,3,1.2
			c0.8,1.1,1,2.5,0.7,3.9C19.4,75.7,13.7,76.2,12.6,76.2 M17.7,57.7c-7.6,0-16,4.5-17.5,12.2c-1.6,8.2,5.7,10,10.3,10
			C21.1,80,27.5,73.7,29,67.3C30.4,61.1,25,57.6,17.7,57.7"/>
		<path class="st4" d="M296.6,76.2c-1.4,0.2-2.8-0.3-3.9-1.3c-0.8-1-1-2.5-0.6-4.5c0.8-3.6,3.9-9.1,9.6-9.1c1.1-0.1,2.2,0.3,3,1.2
			c0.8,1.1,1,2.5,0.7,3.9C303.3,75.8,297.6,76.3,296.6,76.2 M301.7,57.7c-7.6,0-16,4.6-17.5,12.2c-1.6,8.2,5.7,10,10.3,10
			c10.5,0.1,16.9-6.2,18.4-12.6C314.4,61.2,309,57.7,301.7,57.7"/>
		<path class="st4" d="M267.6,76.2c-1.4,0.2-2.8-0.3-3.9-1.3c-0.8-1-1.1-2.5-0.6-4.5c0.8-3.6,3.9-9.1,9.6-9.1c1.1-0.1,2.2,0.3,3,1.2
			c0.8,1.1,1,2.5,0.7,3.9C274.3,75.8,268.6,76.3,267.6,76.2 M272.7,57.7c-7.6,0-16,4.6-17.5,12.2c-1.6,8.2,5.7,10,10.3,10
			c10.5,0.1,16.9-6.2,18.4-12.6C285.4,61.2,280,57.7,272.7,57.7"/>
		<path class="st3" d="M169.2,69.2c-4,0.4-5.5,1.4-5.8,3.4c-0.3,1.5,0.7,3,4.4,2.8c2.1-0.1,4.2-0.6,6.2-1.4l1.8-4.8
			C173.6,68.9,171.4,68.9,169.2,69.2 M163.3,58.4c3.4-0.6,6.9-0.9,10.4-0.9c8.1,0,13.1,2.7,10.7,8.7l-2.9,7.7
			c-1.2,3.2-1,4.4-0.7,5.6c-1.9-0.5-3.9-0.7-5.9-0.6c-3.6,0.1-5.1,1-10.9,1c-6.3,0-8.6-3.1-8.4-6.4c0.2-2.9,1.8-5.4,5.4-6.8
			c2.3-0.9,4.8-1.3,7.2-1.5c3-0.2,6-0.2,9,0c0.3-1.1,0.8-3.3-4.5-3.3c-3.8-0.1-7.7,0.4-11.4,1.5L163.3,58.4z"/>
		<path class="st3" d="M137,75.7c-4.4,0-4-4.3-2.4-7.6c1.5-3.5,4.8-5.9,8.5-6.3c1.7-0.2,3.4,0.3,4.7,1.4
			C144.8,74.8,138.8,75.7,137,75.7 M153.6,58.7c-3.9,0-4-1.1-10.3-1.1c-9,0-16.5,6.6-17.5,14c-0.4,2.1,0.2,4.2,1.6,5.9
			c1.4,1.5,3.5,2.1,5.9,2.2c3.6,0.3,7.2-0.7,10.3-2.7c-1.9,5.6-8.3,6.7-12.6,6.7c-2.1,0.1-4.2-0.2-6.2-1l-1.9,4.7
			c2.3,0.5,4.6,0.8,6.9,0.8c10.6,0,17.3-3.8,20.2-11.2l7.2-19C156,58.4,154.8,58.6,153.6,58.7"/>
		<path class="st3" d="M79.6,73.3c-2.3,1-4.8,1.6-7.3,1.7c-7.1,0-9.3-4.3-8.5-8.5c1.2-6.9,7.9-12.2,15.8-12.2c2.3,0,4.5,0.4,6.6,1.3
			l2.3-4.5c-2.3-1-4.8-1.5-7.3-1.4c-12.6,0-24.4,7.2-26.1,16.8c-1.5,8.5,5.8,13.2,14.8,13.2c2.5,0,4.9-0.3,7.3-0.9L79.6,73.3z"/>
		<path class="st3" d="M200.4,57.5l1.6-4.2l-8,1.4l-1.1,2.9h-3.5l-1.3,3.5h3.5l-4.2,10.4c-1.1,2.7-1.1,4.6-0.2,5.9s2.8,1.9,5.7,1.9
			c1.9,0,3.7-0.3,5.6-0.8l1.7-4.1l0,0c-1.2,0.5-2.5,0.8-3.8,0.8c-0.7,0.1-1.3-0.1-1.8-0.6c-0.5-0.6-0.4-1.9,0.3-3.6
			c0,0,3.5-8.5,4.1-10h5.3l1.4-3.5L200.4,57.5z"/>
		<path class="st3" d="M219.1,61.1c1.1-0.1,2.1,0.2,2.9,1c0.6,0.8,0.6,2.1,0.1,3.8h-9.8C213.2,63,216,61,219.1,61.1 M224.9,74.5
			L224.9,74.5c-2.6,1-5.4,1.6-8.2,1.6c-1.8,0.1-3.6-0.6-4.9-2c-0.9-1.3-1.2-2.9-0.7-4.4h17.3l0.1-0.2c1.4-3.8,1.2-7-0.5-9.2
			c-1.5-2-4.2-3-7.8-3c-8.2,0-15.1,4.6-16.9,11.1c-0.9,3.3-0.4,6.2,1.4,8.3c2,2.4,5.5,3.7,9.8,3.7c2.8,0,5.6-0.5,8.2-1.3L224.9,74.5
			z"/>
		<path class="st3" d="M219.1,61.1c1.1-0.1,2.1,0.2,2.9,1c0.6,0.8,0.6,2.1,0.1,3.8h-9.8C213.2,63,216,61,219.1,61.1 M224.9,74.5
			L224.9,74.5c-2.6,1-5.4,1.6-8.2,1.6c-1.8,0.1-3.6-0.6-4.9-2c-0.9-1.3-1.2-2.9-0.7-4.4h17.3l0.1-0.2c1.4-3.8,1.2-7-0.5-9.2
			c-1.5-2-4.2-3-7.8-3c-8.2,0-15.1,4.6-16.9,11.1c-0.9,3.3-0.4,6.2,1.4,8.3c2,2.4,5.5,3.7,9.8,3.7c2.8,0,5.6-0.5,8.2-1.3L224.9,74.5
			z"/>
		<path class="st3" d="M232.1,56.2h0.2c0.3,0,0.5-0.2,0.5-0.3c0-0.2-0.2-0.4-0.5-0.4h-0.3L232.1,56.2z M232.1,57.8h-0.9v-2.9
			c0.4-0.1,0.8-0.1,1.3-0.1c0.4,0,0.8,0,1.2,0.2c0.2,0.1,0.3,0.4,0.3,0.6c0,0.3-0.3,0.5-0.7,0.7l0,0c0.3,0.1,0.6,0.4,0.6,0.7
			c0,0.2,0.1,0.5,0.2,0.7h-1c-0.1-0.2-0.2-0.4-0.2-0.6c-0.1-0.3-0.2-0.4-0.5-0.4h-0.3L232.1,57.8z M232.5,54c-1.3,0-2.4,1-2.4,2.3
			s1,2.4,2.3,2.4s2.4-1,2.4-2.3c0,0,0,0,0,0c0-1.2-0.9-2.3-2.2-2.3C232.6,54,232.5,54,232.5,54z M232.6,53.2c1.8,0,3.2,1.5,3.2,3.3
			c0,1.8-1.5,3.2-3.3,3.2c-1.8,0-3.2-1.5-3.2-3.3C229.3,54.7,230.8,53.3,232.6,53.2L232.6,53.2z"/>
		<polygon class="st3" points="121.8,50.2 110.5,79.4 118,79.4 129.3,50.2 		"/>
		<path class="st3" d="M189.6,89.4L189.6,89.4c-5.9,6.8-13.1,12.4-21.2,16.4c-16,7.8-34.7,7.8-50.8,0c-8.1-4-15.3-9.6-21.2-16.4
			l-2.1,5.6c18.2,26.9,54.7,33.9,81.5,15.8c6.3-4.2,11.7-9.6,15.9-15.9L189.6,89.4z"/>
	</g>
</g>
<g id="Estructura_1_">
	<g id="LG_Colgate_1_">
		<path class="st0" d="M254.6,328.8c0,130.1-224.7,130.1-224.7,0v-65.4h224.7V328.8z"/>
		<path class="st0" d="M254.6,328.8c0,130.1-224.7,130.1-224.7,0v-78.3h224.7V328.8z"/>
		
			<text transform="matrix(1 0 0 1 315.2155 338.8543)" class="st0" style="font-family:'ColgateReady-Bold'; font-size:58.44px; letter-spacing:-2;">V</text>
		<text transform="matrix(1 0 0 1 355.5955 338.8543)" class="st0" style="font-family:'ColgateReady-Bold'; font-size:58.44px;">ademecum</text>
		<line class="st2" x1="311.1" y1="367.4" x2="669.9" y2="367.4"/>
		<line class="st2" x1="311.1" y1="275.7" x2="669.9" y2="275.7"/>
		<path class="st3" d="M94.6,326.7c-1.4,0.2-2.8-0.3-3.9-1.3c-0.8-1-1-2.5-0.6-4.5c0.8-3.6,3.9-9.1,9.6-9.1c1.1-0.1,2.2,0.3,3,1.1
			c0.8,1.1,1,2.5,0.7,3.9C101.3,326.3,95.6,326.7,94.6,326.7 M99.7,308.2c-7.6,0-16,4.6-17.5,12.2c-1.6,8.2,5.7,10,10.3,10
			c10.5,0.1,16.9-6.2,18.4-12.6C112.4,311.6,107,308.2,99.7,308.2"/>
		<path class="st4" d="M12.6,326.7c-1.4,0.2-2.8-0.3-3.9-1.3c-0.8-1-1-2.5-0.6-4.5c0.8-3.6,3.9-9.1,9.6-9.1c1.1-0.1,2.2,0.3,3,1.1
			c0.8,1.1,1,2.5,0.7,3.9C19.4,326.2,13.7,326.7,12.6,326.7 M17.7,308.1c-7.6,0-16,4.5-17.5,12.2c-1.6,8.2,5.7,10,10.3,10
			c10.5,0.1,16.9-6.2,18.4-12.6C30.4,311.6,25,308.1,17.7,308.1"/>
		<path class="st4" d="M296.6,326.7c-1.4,0.2-2.8-0.3-3.9-1.3c-0.8-1-1-2.5-0.6-4.5c0.8-3.6,3.9-9.1,9.6-9.1c1.1-0.1,2.2,0.3,3,1.1
			c0.8,1.1,1,2.5,0.7,3.9C303.3,326.3,297.6,326.7,296.6,326.7 M301.7,308.2c-7.6,0-16,4.6-17.5,12.2c-1.6,8.2,5.7,10,10.3,10
			c10.5,0.1,16.9-6.2,18.4-12.6C314.4,311.6,309,308.2,301.7,308.2"/>
		<path class="st4" d="M267.6,326.7c-1.4,0.2-2.8-0.3-3.9-1.3c-0.8-1-1.1-2.5-0.6-4.5c0.8-3.6,3.9-9.1,9.6-9.1
			c1.1-0.1,2.2,0.3,3,1.1c0.8,1.1,1,2.5,0.7,3.9C274.3,326.3,268.6,326.7,267.6,326.7 M272.7,308.2c-7.6,0-16,4.6-17.5,12.2
			c-1.6,8.2,5.7,10,10.3,10c10.5,0.1,16.9-6.2,18.4-12.6C285.4,311.6,280,308.2,272.7,308.2"/>
		<path class="st3" d="M169.2,319.6c-4,0.4-5.5,1.4-5.8,3.4c-0.3,1.5,0.7,3,4.4,2.8c2.1-0.1,4.2-0.6,6.2-1.5l1.8-4.8
			C173.6,319.4,171.4,319.4,169.2,319.6 M163.3,308.8c3.4-0.6,6.9-0.9,10.4-0.9c8.1,0,13.1,2.7,10.7,8.7l-2.9,7.6
			c-1.2,3.2-1,4.5-0.7,5.6c-1.9-0.5-3.9-0.7-5.9-0.6c-3.6,0.1-5.1,1-10.9,1c-6.3,0-8.6-3.1-8.4-6.4c0.2-2.9,1.8-5.4,5.4-6.8
			c2.3-0.9,4.8-1.3,7.2-1.5c3-0.2,6-0.2,9,0c0.3-1.1,0.8-3.3-4.5-3.3c-3.8-0.1-7.7,0.4-11.4,1.5L163.3,308.8z"/>
		<path class="st3" d="M137,326.1c-4.4,0-4-4.3-2.4-7.6c1.5-3.5,4.8-5.9,8.5-6.3c1.7-0.2,3.4,0.3,4.7,1.4
			C144.8,325.2,138.8,326.1,137,326.1 M153.6,309.1c-3.9,0-4-1.1-10.3-1.1c-9,0-16.5,6.6-17.5,14c-0.4,2.1,0.2,4.2,1.6,5.9
			c1.4,1.5,3.5,2.1,5.9,2.2c3.6,0.3,7.2-0.7,10.3-2.7c-1.9,5.6-8.3,6.7-12.6,6.7c-2.1,0.1-4.2-0.2-6.2-1l-1.9,4.7
			c2.3,0.5,4.6,0.8,6.9,0.8c10.6,0,17.3-3.8,20.2-11.2l7.2-19C156,308.9,154.8,309.1,153.6,309.1"/>
		<path class="st3" d="M79.6,323.7c-2.3,1-4.8,1.6-7.3,1.6c-7.1,0-9.3-4.3-8.5-8.5c1.2-6.9,7.9-12.2,15.8-12.2
			c2.3,0,4.5,0.4,6.6,1.3l2.3-4.5c-2.3-1-4.8-1.5-7.3-1.4c-12.6,0-24.4,7.2-26.1,16.8C53.6,325.3,61,330,69.9,330
			c2.5,0,4.9-0.3,7.3-0.9L79.6,323.7z"/>
		<path class="st3" d="M200.4,308l1.6-4.2l-8,1.4l-1.1,2.9h-3.5l-1.3,3.5h3.5l-4.2,10.4c-1.1,2.6-1.1,4.6-0.2,5.9
			c1,1.3,2.8,1.9,5.7,1.9c1.9,0,3.7-0.3,5.6-0.8l1.7-4.1l0,0c-1.2,0.5-2.5,0.8-3.8,0.9c-0.7,0.1-1.3-0.1-1.8-0.6
			c-0.5-0.6-0.4-1.9,0.3-3.6c0,0,3.5-8.5,4.1-10h5.3l1.4-3.5L200.4,308z"/>
		<path class="st3" d="M219.1,311.6c1.1-0.1,2.1,0.2,2.9,1c0.6,0.8,0.6,2.1,0.1,3.8h-9.8C213.2,313.4,216,311.5,219.1,311.6
			 M224.9,325L224.9,325c-2.6,1-5.4,1.6-8.2,1.6c-1.8,0.1-3.6-0.6-4.9-2c-0.9-1.3-1.2-2.9-0.7-4.4h17.3l0.1-0.2
			c1.4-3.8,1.2-7-0.5-9.2c-1.5-2-4.2-3-7.8-3c-8.2,0-15.1,4.6-16.9,11.1c-0.9,3.3-0.4,6.2,1.4,8.4c2,2.4,5.5,3.7,9.8,3.7
			c2.8,0,5.6-0.5,8.2-1.3L224.9,325z"/>
		<path class="st3" d="M219.1,311.6c1.1-0.1,2.1,0.2,2.9,1c0.6,0.8,0.6,2.1,0.1,3.8h-9.8C213.2,313.4,216,311.5,219.1,311.6
			 M224.9,325L224.9,325c-2.6,1-5.4,1.6-8.2,1.6c-1.8,0.1-3.6-0.6-4.9-2c-0.9-1.3-1.2-2.9-0.7-4.4h17.3l0.1-0.2
			c1.4-3.8,1.2-7-0.5-9.2c-1.5-2-4.2-3-7.8-3c-8.2,0-15.1,4.6-16.9,11.1c-0.9,3.3-0.4,6.2,1.4,8.4c2,2.4,5.5,3.7,9.8,3.7
			c2.8,0,5.6-0.5,8.2-1.3L224.9,325z"/>
		<path class="st3" d="M232.1,306.7h0.2c0.3,0,0.5-0.2,0.5-0.3c0-0.2-0.2-0.4-0.5-0.4h-0.3L232.1,306.7z M232.1,308.3h-0.9v-2.9
			c0.4-0.1,0.8-0.1,1.3-0.1c0.4,0,0.8,0,1.2,0.2c0.2,0.1,0.3,0.4,0.3,0.6c0,0.3-0.3,0.5-0.7,0.6l0,0c0.3,0.1,0.6,0.4,0.6,0.7
			c0,0.2,0.1,0.5,0.2,0.7h-1c-0.1-0.2-0.2-0.4-0.2-0.6c-0.1-0.3-0.2-0.4-0.5-0.4h-0.3L232.1,308.3z M232.5,304.5
			c-1.3,0-2.4,1-2.4,2.3c0,1.3,1,2.4,2.3,2.4c1.3,0,2.4-1,2.4-2.3c0,0,0,0,0,0c0-1.2-0.9-2.3-2.2-2.3
			C232.6,304.5,232.5,304.5,232.5,304.5z M232.6,303.7c1.8,0,3.2,1.5,3.2,3.3s-1.5,3.2-3.3,3.2s-3.2-1.5-3.2-3.3
			C229.3,305.1,230.8,303.7,232.6,303.7L232.6,303.7z"/>
		<polygon class="st3" points="121.8,300.7 110.5,329.9 118,329.9 129.3,300.7 		"/>
		<path class="st3" d="M189.6,339.8L189.6,339.8c-5.9,6.8-13.1,12.4-21.2,16.4c-16,7.8-34.7,7.8-50.8,0c-8.1-4-15.3-9.6-21.2-16.4
			l-2.1,5.6c18.2,26.9,54.7,33.9,81.5,15.8c6.3-4.2,11.7-9.6,15.9-15.9L189.6,339.8z"/>
	</g>
</g>
</svg>
