<svg xmlns="http://www.w3.org/2000/svg" viewBox="0 0 669 204"><defs><style>.cls-1,.cls-2{fill:#d2010d;}.cls-2{font-size:58.44px;font-family:ColgateReady-Heavy, Colgate Ready;font-weight:800;letter-spacing:-0.04em;}.cls-3{letter-spacing:0em;}.cls-4,.cls-6{fill:none;}.cls-4{stroke:#d6d6d6;stroke-miterlimit:10;stroke-width:5px;}.cls-5{fill:#fff;}</style></defs><g id="Estructura"><g id="LG_Colgate" data-name="LG Colgate"><path class="cls-1" d="M240.2,83.41c0,130.12-224.7,130.12-224.7,0V18H240.2Z"/><path class="cls-1" d="M240.2,83.41c0,130.12-224.7,130.12-224.7,0V5.08H240.2Z"/><text class="cls-2" transform="translate(300.83 93.47)">V<tspan class="cls-3" x="40.38" y="0">ademecum</tspan></text><line class="cls-4" x1="296.76" y1="122.04" x2="655.5" y2="122.04"/><line class="cls-4" x1="296.76" y1="30.36" x2="655.5" y2="30.36"/><path class="cls-5" d="M80.17,81.3A4.9,4.9,0,0,1,76.28,80c-.84-1-1-2.48-.64-4.49.75-3.63,3.91-9.06,9.57-9.06a3.79,3.79,0,0,1,3,1.15,4.47,4.47,0,0,1,.66,3.87c-1.92,9.4-7.62,9.88-8.74,9.88m5.19-18.57c-7.61,0-16,4.55-17.51,12.23-1.64,8.19,5.66,10,10.34,10,10.54.12,16.94-6.18,18.42-12.6,1.41-6.18-4-9.64-11.25-9.64"/><path class="cls-6" d="M-1.83,81.3A4.9,4.9,0,0,1-5.72,80c-.84-1-1-2.48-.64-4.49.75-3.63,3.91-9.06,9.57-9.06a3.79,3.79,0,0,1,3,1.15,4.47,4.47,0,0,1,.66,3.87C5,80.82-.71,81.3-1.83,81.3M3.36,62.73c-7.61,0-16,4.55-17.51,12.23-1.64,8.19,5.66,10,10.34,10,10.54.12,16.94-6.18,18.42-12.6,1.41-6.18-4-9.64-11.25-9.64"/><path class="cls-6" d="M282.17,81.3A4.9,4.9,0,0,1,278.28,80c-.84-1-1-2.48-.64-4.49.75-3.63,3.91-9.06,9.57-9.06a3.79,3.79,0,0,1,3,1.15,4.47,4.47,0,0,1,.66,3.87c-1.92,9.4-7.62,9.88-8.74,9.88m5.19-18.57c-7.61,0-16,4.55-17.51,12.23-1.64,8.19,5.66,10,10.34,10,10.54.12,16.94-6.18,18.42-12.6,1.41-6.18-4-9.64-11.25-9.64"/><path class="cls-6" d="M253.17,81.3A4.9,4.9,0,0,1,249.28,80c-.84-1-1.05-2.48-.64-4.49.75-3.63,3.91-9.06,9.57-9.06a3.79,3.79,0,0,1,3,1.15,4.47,4.47,0,0,1,.66,3.87c-1.92,9.4-7.62,9.88-8.74,9.88m5.19-18.57c-7.61,0-16,4.55-17.51,12.23-1.64,8.19,5.66,10,10.34,10,10.54.12,16.94-6.18,18.42-12.6,1.41-6.18-4-9.64-11.25-9.64"/><path class="cls-5" d="M154.78,74.23c-4,.41-5.46,1.44-5.79,3.36-.27,1.53.72,3,4.42,2.8a16.36,16.36,0,0,0,6.17-1.45l1.84-4.82a40.32,40.32,0,0,0-6.64.11m-5.9-10.8a55.6,55.6,0,0,1,10.4-.91c8.09,0,13.07,2.68,10.74,8.72l-2.92,7.65c-1.23,3.22-1,4.45-.71,5.59a17.38,17.38,0,0,0-5.87-.59c-3.55.1-5.08,1-10.9,1-6.3,0-8.6-3.11-8.36-6.41.22-2.89,1.83-5.41,5.43-6.84a24.3,24.3,0,0,1,7.22-1.47,61.62,61.62,0,0,1,9,0c.33-1.08.8-3.28-4.54-3.32A37.69,37.69,0,0,0,147,68.38Z"/><path class="cls-5" d="M122.64,80.76c-4.39,0-4-4.27-2.45-7.6a10.69,10.69,0,0,1,8.51-6.32,6.08,6.08,0,0,1,4.74,1.42c-3,11.59-9,12.5-10.8,12.5m16.59-17c-3.87,0-4-1.06-10.33-1.06-9,0-16.45,6.64-17.51,14A7,7,0,0,0,113,82.55c1.38,1.51,3.47,2.1,5.94,2.21A16.66,16.66,0,0,0,129.2,82.1c-1.88,5.57-8.29,6.73-12.59,6.7a15,15,0,0,1-6.22-1l-1.88,4.73a30.29,30.29,0,0,0,6.95.83c10.55,0,17.34-3.77,20.17-11.2l7.21-19a17.34,17.34,0,0,1-3.61.59"/><path class="cls-5" d="M65.26,78.35A20.53,20.53,0,0,1,57.94,80c-7.09,0-9.26-4.31-8.51-8.5,1.24-6.91,7.91-12.16,15.82-12.16a17,17,0,0,1,6.57,1.27l2.31-4.5a18.63,18.63,0,0,0-7.28-1.44c-12.63,0-24.44,7.2-26.12,16.8-1.48,8.47,5.84,13.19,14.82,13.19a33.7,33.7,0,0,0,7.31-.9Z"/><path class="cls-5" d="M186,62.57l1.58-4.25-8,1.38-1.09,2.87H175l-1.27,3.5h3.49L173,76.48c-1.08,2.65-1.14,4.58-.17,5.91s2.81,1.94,5.72,1.94a24.43,24.43,0,0,0,5.56-.79l1.7-4.1h0a12.41,12.41,0,0,1-3.79.85,1.91,1.91,0,0,1-1.76-.6c-.47-.63-.35-1.88.33-3.6,0,0,3.48-8.52,4.08-10h5.26l1.35-3.5Z"/><path class="cls-5" d="M204.74,66.2a3.42,3.42,0,0,1,2.86,1c.62.81.65,2.13.08,3.82h-9.8a7,7,0,0,1,6.86-4.86m5.74,13.43h0a21.88,21.88,0,0,1-8.17,1.57,6,6,0,0,1-4.87-2,4.8,4.8,0,0,1-.7-4.42H214l.08-.23c1.35-3.76,1.18-7-.48-9.18-1.52-2-4.17-3-7.84-3-8.17,0-15.12,4.55-16.93,11.07-.91,3.29-.43,6.18,1.37,8.35,2,2.39,5.46,3.71,9.79,3.71a29.94,29.94,0,0,0,8.24-1.27Z"/><path class="cls-5" d="M204.74,66.2a3.42,3.42,0,0,1,2.86,1c.62.81.65,2.13.08,3.82h-9.8a7,7,0,0,1,6.86-4.86m5.74,13.43h0a21.88,21.88,0,0,1-8.17,1.57,6,6,0,0,1-4.87-2,4.8,4.8,0,0,1-.7-4.42H214l.08-.23c1.35-3.76,1.18-7-.48-9.18-1.52-2-4.17-3-7.84-3-8.17,0-15.12,4.55-16.93,11.07-.91,3.29-.43,6.18,1.37,8.35,2,2.39,5.46,3.71,9.79,3.71a29.94,29.94,0,0,0,8.24-1.27Z"/><path class="cls-5" d="M217.75,61.27H218c.31,0,.53-.15.53-.34s-.21-.37-.49-.37l-.3,0Zm0,1.64h-.89V60a6.87,6.87,0,0,1,1.26-.11,2,2,0,0,1,1.16.23.77.77,0,0,1,.31.64c0,.29-.27.54-.67.65v0a.84.84,0,0,1,.59.74,3.23,3.23,0,0,0,.2.69h-1a1.67,1.67,0,0,1-.2-.61c-.05-.29-.19-.44-.48-.44h-.29Zm.35-3.81a2.34,2.34,0,1,0,2.3,2.33,2.25,2.25,0,0,0-2.3-2.33Zm.09-.78a3.23,3.23,0,1,1-.06,0Z"/><polygon class="cls-5" points="107.39 55.28 96.07 84.48 103.58 84.48 114.9 55.28 107.39 55.28"/><path class="cls-5" d="M175.2,94.46h0A68.27,68.27,0,0,1,154,110.82a57.71,57.71,0,0,1-50.76,0A68,68,0,0,1,82,94.42L79.89,100a58.72,58.72,0,0,0,97.4-.12Z"/></g></g></svg>