<svg xmlns="http://www.w3.org/2000/svg" viewBox="0 0 238 270"><defs><style>.cls-1{fill:#fff;stroke:#fff;stroke-miterlimit:10;stroke-width:2.9px;}</style></defs><g id="Estructura"><path class="cls-1" d="M140.38,69.92a14.75,14.75,0,0,0-14.74-14.74H114.31a3.41,3.41,0,0,0-3.41,3.41v39.7a3.41,3.41,0,1,0,6.82,0V84.66h7.61l15.47,17-9.42,10.39a3.41,3.41,0,1,0,5,4.58l9-9.9,9,9.9a3.41,3.41,0,0,0,5.05-4.58L150,101.71l9.51-10.47a3.41,3.41,0,0,0-5-4.58l-9.06,10L132.83,82.78a14.74,14.74,0,0,0,7.55-12.86Zm-14.74,7.93h-7.92V62h7.92a7.93,7.93,0,0,1,0,15.86Zm0,0"/><path class="cls-1" d="M217.5,24H53.79a3.41,3.41,0,0,0-3.41,3.41V63.86a3.41,3.41,0,1,0,6.81,0v-33H214.1V196.47a3.41,3.41,0,0,0,6.81,0V27.41A3.41,3.41,0,0,0,217.5,24Zm0,0"/><path class="cls-1" d="M217.5,188.52a3.41,3.41,0,0,0-3.4,3.41v36.56a20.58,20.58,0,0,1-20,20.68c-.71,0-1.41-.08-2.1-.16h0l-1-.15-.11,0-.87-.18-.23,0-.73-.18-.39-.11-.57-.18-.55-.18-.39-.14-.72-.29-.2-.08-.89-.4h0a21.88,21.88,0,0,1-11.87-15.19l0,0c-.06-.31-.11-.62-.16-.93l0-.16c0-.28-.07-.57-.11-.85l0-.24-.06-.83a2.11,2.11,0,0,0,0-.26c0-.37,0-.73,0-1.1a3.41,3.41,0,0,0-3.4-3.41H73.92a3.41,3.41,0,1,0,0,6.81h92.43c.06.45.12.9.2,1.35,0,0,0,0,0,.08.07.42.16.83.25,1.25,0,0,0,.05,0,.08a28.38,28.38,0,0,0,7.46,13.79c.62.64,1.27,1.24,1.94,1.81H39a21.79,21.79,0,0,1-21.49-18.36H73.91a3.41,3.41,0,1,0,0-6.81H57.19V63.87a3.41,3.41,0,1,0-6.81,0V224H13.86a3.41,3.41,0,0,0-3.41,3.41A28.61,28.61,0,0,0,39,256H194.73a3.06,3.06,0,0,0,.74-.09,27.49,27.49,0,0,0,25.44-27.42V191.93a3.41,3.41,0,0,0-3.41-3.41Zm0,0"/><path class="cls-1" d="M73.91,178.27H194.19a3.41,3.41,0,0,0,0-6.81H73.91a3.41,3.41,0,0,0,0,6.81Zm0,0"/><path class="cls-1" d="M73.91,158.78H194.19a3.41,3.41,0,0,0,0-6.82H73.91a3.41,3.41,0,0,0,0,6.82Zm0,0"/><path class="cls-1" d="M70.51,135.88a3.41,3.41,0,0,0,3.4,3.41H194.19a3.41,3.41,0,0,0,0-6.82H73.91a3.41,3.41,0,0,0-3.4,3.41Zm0,0"/><path class="cls-1" d="M73.91,197.76h72a3.41,3.41,0,0,0,0-6.81h-72a3.41,3.41,0,0,0,0,6.81Zm0,0"/></g></svg>